<svg xmlns="http://www.w3.org/2000/svg" xmlns:xlink="http://www.w3.org/1999/xlink" width="500" zoomAndPan="magnify" viewBox="0 0 375 374.999991" height="500" preserveAspectRatio="xMidYMid meet" version="1.0"><defs><clipPath id="id1"><path d="M 241.453125 67.65625 L 304.453125 67.65625 L 304.453125 130.65625 L 241.453125 130.65625 Z M 241.453125 67.65625 " clip-rule="nonzero"/></clipPath><clipPath id="id2"><path d="M 249 75.214844 L 297 75.214844 L 297 123.214844 L 249 123.214844 Z M 249 75.214844 " clip-rule="nonzero"/></clipPath><clipPath id="id3"><path d="M 310.394531 67.65625 L 373.394531 67.65625 L 373.394531 130.65625 L 310.394531 130.65625 Z M 310.394531 67.65625 " clip-rule="nonzero"/></clipPath><clipPath id="id4"><path d="M 318 75.214844 L 366 75.214844 L 366 123.214844 L 318 123.214844 Z M 318 75.214844 " clip-rule="nonzero"/></clipPath><clipPath id="id5"><path d="M 262.1875 142.714844 L 346 142.714844 L 346 187 L 262.1875 187 Z M 262.1875 142.714844 " clip-rule="nonzero"/></clipPath></defs><path fill="#488c03" d="M 323.871094 153.574219 C 315.453125 163.984375 302.898438 164.859375 262.246094 167.777344 C 255.117188 168.285156 248.472656 168.773438 242.320312 169.1875 L 242.292969 169.1875 C 229.277344 170.132812 218.476562 170.910156 209.8125 171.542969 C 193.074219 172.734375 184.390625 173.390625 183.464844 173.515625 C 176.507812 174.414062 169.355469 175.582031 162.078125 177.0625 C 147.921875 179.910156 133.273438 183.921875 118.554688 189.488281 L 118.53125 189.488281 C 106.777344 193.960938 95.027344 199.433594 83.445312 206.117188 C 81.136719 207.457031 78.847656 208.84375 76.5625 210.277344 C 40.871094 232.644531 38.070312 248.160156 37.511719 252.949219 C 36.078125 265.859375 41.503906 286.28125 52.230469 291.632812 C 52.574219 291.800781 52.914062 291.972656 53.035156 292.019531 C 56.585938 293.625 68.558594 298.320312 77.851562 290.855469 C 85.050781 285.066406 87.21875 274.683594 84.078125 266.660156 C 82.035156 261.410156 76.730469 254.675781 70.796875 254.894531 C 62.816406 255.183594 59.019531 267.707031 56.390625 266.6875 C 53.863281 265.738281 53.375 252.65625 60.625 245.945312 C 68.242188 238.894531 82.277344 240.667969 90.550781 245.898438 C 93.226562 247.597656 95.613281 249.835938 97.679688 252.484375 C 100.210938 255.746094 102.230469 259.632812 103.738281 263.890625 C 104.636719 266.320312 105.320312 268.875 105.828125 271.5 C 106.777344 276.191406 107.144531 281.105469 106.875 285.917969 C 106.730469 289.078125 106.316406 292.191406 105.609375 295.183594 C 104.273438 300.894531 101.9375 306.097656 98.507812 310.207031 L 98.507812 310.234375 C 97.996094 310.863281 97.4375 311.496094 96.851562 312.082031 C 78.996094 329.976562 36.492188 320.882812 16.636719 298.730469 C 11.40625 292.898438 7.683594 286.0625 5.203125 278.503906 C 3.207031 272.449219 2.066406 265.933594 1.601562 259.101562 C 1.238281 253.726562 1.308594 248.160156 1.773438 242.445312 C 2.285156 235.660156 3.378906 228.707031 4.910156 221.65625 C 5.933594 216.867188 7.199219 212.050781 8.632812 207.238281 C 10.652344 200.453125 13.011719 193.644531 15.6875 186.984375 C 23.9375 166.21875 34.933594 146.5 46.269531 130.890625 C 53.082031 121.53125 60.164062 113.410156 67.144531 106.429688 C 79.96875 93.542969 92.425781 84.449219 102.011719 78.25 C 106.339844 75.429688 110.085938 73.21875 113.03125 71.492188 C 114.6875 70.519531 116.535156 69.449219 118.601562 68.257812 C 127.117188 63.371094 139.039062 56.925781 153.296875 51.285156 C 157.335938 49.65625 161.570312 48.125 165.972656 46.714844 C 178.378906 42.679688 192.101562 39.566406 206.652344 38.59375 C 222.246094 37.5 238.765625 38.835938 255.578125 44.066406 C 258.886719 45.085938 264.726562 46.910156 271.734375 49.949219 C 271.757812 49.949219 271.78125 49.949219 271.78125 49.949219 C 273.582031 50.75 275.429688 51.601562 277.351562 52.550781 C 282.585938 55.128906 288.203125 58.386719 293.777344 62.445312 C 297.109375 64.851562 300.417969 67.578125 303.605469 70.640625 C 309.90625 76.671875 315.722656 83.964844 320.269531 92.816406 C 320.734375 93.714844 323.554688 99.308594 326.15625 107.039062 L 326.15625 107.0625 C 330.660156 120.507812 334.480469 140.496094 323.871094 153.574219 Z M 323.871094 153.574219 " fill-opacity="1" fill-rule="nonzero"/><path fill="#03a696" d="M 287.183594 49.292969 C 300.394531 50.117188 310.320312 56.539062 310.320312 56.539062 C 313.019531 58.484375 316.839844 61.207031 330.027344 79.441406 C 338.175781 90.699219 342.238281 96.316406 347.058594 104.632812 C 355.765625 119.683594 360.121094 127.21875 360.148438 134.757812 C 360.195312 148.421875 351.167969 161.574219 339.976562 168.164062 C 333.066406 172.226562 325.621094 173.585938 300.953125 170.984375 C 258.058594 166.488281 236.578125 164.296875 225.433594 149.320312 C 215.996094 136.605469 216.359375 121.992188 216.480469 117.421875 C 217.429688 79.976562 256.234375 47.371094 287.183594 49.292969 Z M 287.183594 49.292969 " fill-opacity="1" fill-rule="nonzero"/><path fill="#ffffff" d="M 305.84375 99.621094 C 305.84375 100.683594 305.792969 101.738281 305.6875 102.792969 C 305.582031 103.847656 305.429688 104.894531 305.222656 105.929688 C 305.015625 106.96875 304.757812 107.996094 304.449219 109.011719 C 304.140625 110.023438 303.785156 111.019531 303.378906 111.996094 C 302.972656 112.976562 302.523438 113.933594 302.023438 114.867188 C 301.523438 115.800781 300.976562 116.707031 300.390625 117.589844 C 299.800781 118.46875 299.171875 119.320312 298.496094 120.136719 C 297.824219 120.957031 297.113281 121.742188 296.367188 122.488281 C 295.617188 123.238281 294.832031 123.949219 294.011719 124.621094 C 293.191406 125.292969 292.34375 125.921875 291.460938 126.511719 C 290.582031 127.097656 289.671875 127.644531 288.738281 128.140625 C 287.804688 128.640625 286.847656 129.09375 285.867188 129.5 C 284.886719 129.90625 283.890625 130.261719 282.878906 130.566406 C 281.863281 130.875 280.835938 131.132812 279.796875 131.339844 C 278.757812 131.546875 277.710938 131.703125 276.65625 131.804688 C 275.601562 131.910156 274.542969 131.960938 273.484375 131.960938 C 272.425781 131.960938 271.367188 131.910156 270.3125 131.804688 C 269.257812 131.703125 268.210938 131.546875 267.171875 131.339844 C 266.132812 131.132812 265.105469 130.875 264.089844 130.566406 C 263.078125 130.261719 262.082031 129.90625 261.101562 129.5 C 260.121094 129.09375 259.164062 128.640625 258.230469 128.140625 C 257.296875 127.644531 256.386719 127.097656 255.507812 126.511719 C 254.625 125.921875 253.777344 125.292969 252.957031 124.621094 C 252.136719 123.949219 251.351562 123.238281 250.605469 122.488281 C 249.855469 121.742188 249.144531 120.957031 248.472656 120.136719 C 247.800781 119.320312 247.167969 118.46875 246.578125 117.589844 C 245.992188 116.707031 245.445312 115.800781 244.949219 114.867188 C 244.449219 113.933594 243.996094 112.976562 243.589844 111.996094 C 243.183594 111.019531 242.828125 110.023438 242.519531 109.011719 C 242.210938 107.996094 241.953125 106.96875 241.75 105.929688 C 241.542969 104.894531 241.386719 103.847656 241.28125 102.792969 C 241.179688 101.738281 241.125 100.683594 241.125 99.621094 C 241.125 98.5625 241.179688 97.507812 241.28125 96.453125 C 241.386719 95.398438 241.542969 94.351562 241.75 93.3125 C 241.953125 92.273438 242.210938 91.25 242.519531 90.234375 C 242.828125 89.222656 243.183594 88.226562 243.589844 87.246094 C 243.996094 86.269531 244.449219 85.3125 244.949219 84.378906 C 245.445312 83.445312 245.992188 82.539062 246.578125 81.65625 C 247.167969 80.777344 247.800781 79.925781 248.472656 79.109375 C 249.144531 78.289062 249.855469 77.503906 250.605469 76.757812 C 251.351562 76.007812 252.136719 75.296875 252.957031 74.625 C 253.777344 73.953125 254.625 73.324219 255.507812 72.734375 C 256.386719 72.144531 257.296875 71.601562 258.230469 71.101562 C 259.164062 70.605469 260.121094 70.152344 261.101562 69.746094 C 262.082031 69.339844 263.078125 68.984375 264.089844 68.675781 C 265.105469 68.371094 266.132812 68.113281 267.171875 67.90625 C 268.210938 67.699219 269.257812 67.542969 270.3125 67.441406 C 271.367188 67.335938 272.425781 67.285156 273.484375 67.285156 C 274.542969 67.285156 275.601562 67.335938 276.65625 67.441406 C 277.710938 67.542969 278.757812 67.699219 279.796875 67.90625 C 280.835938 68.113281 281.863281 68.371094 282.878906 68.675781 C 283.890625 68.984375 284.886719 69.339844 285.867188 69.746094 C 286.847656 70.152344 287.804688 70.605469 288.738281 71.101562 C 289.671875 71.601562 290.582031 72.144531 291.460938 72.734375 C 292.34375 73.324219 293.195312 73.953125 294.011719 74.625 C 294.832031 75.296875 295.617188 76.007812 296.367188 76.757812 C 297.113281 77.503906 297.824219 78.289062 298.496094 79.109375 C 299.171875 79.925781 299.800781 80.777344 300.390625 81.65625 C 300.976562 82.539062 301.523438 83.445312 302.023438 84.378906 C 302.523438 85.3125 302.972656 86.269531 303.378906 87.246094 C 303.785156 88.226562 304.140625 89.222656 304.449219 90.234375 C 304.757812 91.25 305.015625 92.273438 305.222656 93.3125 C 305.429688 94.351562 305.582031 95.398438 305.6875 96.453125 C 305.792969 97.507812 305.84375 98.5625 305.84375 99.621094 Z M 305.84375 99.621094 " fill-opacity="1" fill-rule="nonzero"/><path fill="#f25e3d" d="M 295.40625 100.71875 C 294.847656 112.339844 285.261719 121.578125 273.484375 121.578125 C 261.367188 121.578125 251.539062 111.78125 251.539062 99.648438 C 251.539062 87.515625 261.367188 77.714844 273.484375 77.714844 C 279.054688 77.714844 284.140625 79.78125 287.984375 83.210938 C 282.632812 83.476562 278.398438 87.902344 278.398438 93.300781 C 278.398438 98.894531 282.925781 103.414062 288.519531 103.414062 C 291.195312 103.390625 293.605469 102.394531 295.40625 100.71875 Z M 295.40625 100.71875 " fill-opacity="1" fill-rule="nonzero"/><path fill="#ffffff" d="M 372.554688 97.265625 C 372.554688 98.324219 372.503906 99.378906 372.398438 100.433594 C 372.296875 101.488281 372.140625 102.535156 371.933594 103.574219 C 371.726562 104.613281 371.46875 105.636719 371.160156 106.652344 C 370.855469 107.664062 370.496094 108.660156 370.089844 109.640625 C 369.6875 110.617188 369.234375 111.574219 368.734375 112.507812 C 368.234375 113.441406 367.691406 114.351562 367.101562 115.230469 C 366.511719 116.109375 365.882812 116.960938 365.210938 117.777344 C 364.539062 118.597656 363.828125 119.382812 363.078125 120.128906 C 362.328125 120.878906 361.542969 121.589844 360.722656 122.261719 C 359.90625 122.933594 359.054688 123.5625 358.171875 124.152344 C 357.292969 124.742188 356.382812 125.285156 355.449219 125.785156 C 354.515625 126.28125 353.558594 126.734375 352.578125 127.140625 C 351.601562 127.546875 350.605469 127.902344 349.589844 128.210938 C 348.574219 128.515625 347.546875 128.773438 346.507812 128.980469 C 345.46875 129.1875 344.421875 129.34375 343.367188 129.445312 C 342.3125 129.550781 341.257812 129.601562 340.195312 129.601562 C 339.136719 129.601562 338.078125 129.550781 337.023438 129.445312 C 335.96875 129.34375 334.921875 129.1875 333.882812 128.980469 C 332.84375 128.773438 331.816406 128.515625 330.804688 128.210938 C 329.789062 127.902344 328.792969 127.546875 327.8125 127.140625 C 326.835938 126.734375 325.878906 126.28125 324.941406 125.785156 C 324.007812 125.285156 323.101562 124.742188 322.21875 124.152344 C 321.335938 123.5625 320.488281 122.933594 319.667969 122.261719 C 318.847656 121.589844 318.066406 120.878906 317.316406 120.128906 C 316.566406 119.382812 315.855469 118.597656 315.183594 117.777344 C 314.511719 116.960938 313.878906 116.109375 313.292969 115.230469 C 312.703125 114.351562 312.160156 113.441406 311.660156 112.507812 C 311.160156 111.574219 310.707031 110.617188 310.300781 109.640625 C 309.894531 108.660156 309.539062 107.664062 309.230469 106.652344 C 308.921875 105.636719 308.667969 104.613281 308.460938 103.574219 C 308.253906 102.535156 308.097656 101.488281 307.992188 100.433594 C 307.890625 99.378906 307.839844 98.324219 307.839844 97.265625 C 307.839844 96.207031 307.890625 95.148438 307.992188 94.09375 C 308.097656 93.039062 308.253906 91.996094 308.460938 90.957031 C 308.667969 89.917969 308.921875 88.890625 309.230469 87.878906 C 309.539062 86.863281 309.894531 85.867188 310.300781 84.890625 C 310.707031 83.910156 311.160156 82.953125 311.660156 82.019531 C 312.160156 81.085938 312.703125 80.179688 313.292969 79.296875 C 313.878906 78.417969 314.511719 77.566406 315.183594 76.75 C 315.855469 75.929688 316.566406 75.148438 317.316406 74.398438 C 318.066406 73.648438 318.847656 72.9375 319.667969 72.265625 C 320.488281 71.59375 321.335938 70.964844 322.21875 70.375 C 323.101562 69.789062 324.007812 69.242188 324.941406 68.746094 C 325.878906 68.246094 326.835938 67.792969 327.8125 67.386719 C 328.792969 66.984375 329.789062 66.625 330.804688 66.320312 C 331.816406 66.011719 332.84375 65.753906 333.882812 65.546875 C 334.921875 65.339844 335.96875 65.1875 337.023438 65.082031 C 338.078125 64.976562 339.136719 64.925781 340.195312 64.925781 C 341.257812 64.925781 342.3125 64.976562 343.367188 65.082031 C 344.421875 65.1875 345.46875 65.339844 346.507812 65.546875 C 347.546875 65.753906 348.574219 66.011719 349.589844 66.320312 C 350.605469 66.625 351.601562 66.984375 352.578125 67.386719 C 353.558594 67.792969 354.515625 68.246094 355.449219 68.746094 C 356.382812 69.242188 357.292969 69.789062 358.171875 70.375 C 359.054688 70.964844 359.90625 71.59375 360.722656 72.265625 C 361.542969 72.9375 362.328125 73.648438 363.078125 74.398438 C 363.828125 75.148438 364.539062 75.929688 365.210938 76.75 C 365.882812 77.566406 366.511719 78.417969 367.101562 79.296875 C 367.691406 80.179688 368.234375 81.085938 368.734375 82.019531 C 369.234375 82.953125 369.6875 83.910156 370.089844 84.890625 C 370.496094 85.867188 370.855469 86.863281 371.160156 87.878906 C 371.46875 88.890625 371.726562 89.917969 371.933594 90.957031 C 372.140625 91.996094 372.296875 93.039062 372.398438 94.09375 C 372.503906 95.148438 372.554688 96.207031 372.554688 97.265625 Z M 372.554688 97.265625 " fill-opacity="1" fill-rule="nonzero"/><path fill="#f25e3d" d="M 362.117188 98.335938 C 361.558594 109.957031 351.972656 119.195312 340.195312 119.195312 C 328.082031 119.195312 318.25 109.398438 318.25 97.265625 C 318.25 85.132812 328.082031 75.332031 340.195312 75.332031 C 345.769531 75.332031 350.851562 77.398438 354.695312 80.828125 C 349.34375 81.09375 345.109375 85.519531 345.109375 90.917969 C 345.109375 96.511719 349.636719 101.03125 355.230469 101.03125 C 357.910156 101.03125 360.316406 100.011719 362.117188 98.335938 Z M 362.117188 98.335938 " fill-opacity="1" fill-rule="nonzero"/><path fill="#03a696" d="M 186.847656 136.457031 C 188.671875 139.351562 184.609375 142.660156 180.765625 155.132812 C 178.574219 162.257812 176.09375 170.207031 178.914062 172.417969 C 182.734375 175.410156 191.273438 164.007812 201.394531 166.339844 C 209.71875 168.261719 216.214844 178.789062 213.949219 183.289062 C 212.734375 185.695312 209.570312 185.257812 189.695312 185.769531 C 173.78125 186.179688 171.058594 186.59375 167.503906 184.066406 C 161.617188 179.859375 160.328125 172.492188 159.332031 166.753906 C 158.332031 160.992188 156.117188 148.082031 164.316406 140.179688 C 171.519531 133.273438 184.316406 132.421875 186.847656 136.457031 Z M 186.847656 136.457031 " fill-opacity="1" fill-rule="nonzero"/><path fill="#03a696" d="M 104.078125 159.605469 C 105.902344 162.5 101.839844 165.804688 97.996094 178.277344 C 95.804688 185.402344 93.324219 193.355469 96.148438 195.566406 C 99.964844 198.558594 108.507812 187.152344 118.628906 189.488281 C 126.949219 191.410156 133.445312 201.9375 131.179688 206.433594 C 129.964844 208.84375 126.800781 208.40625 106.925781 208.914062 C 91.011719 209.328125 88.289062 209.742188 84.734375 207.214844 C 78.847656 203.007812 77.558594 195.640625 76.5625 189.902344 C 75.5625 184.140625 73.351562 171.226562 81.550781 163.324219 C 88.75 156.421875 101.546875 155.59375 104.078125 159.605469 Z M 104.078125 159.605469 " fill-opacity="1" fill-rule="nonzero"/><path fill="#f2b705" d="M 195.410156 77.207031 C 191.933594 94.953125 200.15625 106.429688 196.554688 108.425781 C 192.90625 110.46875 181.007812 100.546875 176.605469 87.394531 C 174.34375 80.558594 174.851562 74.992188 174.949219 72.441406 C 175.167969 66.019531 173.320312 57.582031 165.972656 46.714844 C 178.378906 42.679688 192.101562 39.566406 206.652344 38.59375 C 206.820312 44.089844 206.1875 49.367188 205.191406 53.472656 C 202.515625 64.632812 197.722656 65.386719 195.410156 77.207031 Z M 195.410156 77.207031 " fill-opacity="1" fill-rule="nonzero"/><path fill="#f2b705" d="M 170.253906 109.542969 C 167.820312 112.945312 152.808594 109.058594 143.222656 99.015625 C 138.238281 93.8125 136.339844 88.535156 135.339844 86.203125 C 132.980469 80.730469 128.285156 74.457031 118.601562 68.257812 C 127.117188 63.371094 139.039062 56.925781 153.296875 51.285156 C 153.832031 52.988281 154.269531 54.640625 154.585938 56.148438 C 156.921875 67.382812 152.933594 70.105469 155.875 81.777344 C 160.304688 99.308594 172.640625 106.1875 170.253906 109.542969 Z M 170.253906 109.542969 " fill-opacity="1" fill-rule="nonzero"/><path fill="#f2b705" d="M 139.671875 128.363281 C 138.601562 132.398438 123.175781 134.027344 110.671875 128.023438 C 104.175781 124.910156 100.527344 120.65625 98.773438 118.808594 C 93.566406 113.433594 84.445312 108.15625 67.144531 106.429688 C 79.96875 93.542969 92.425781 84.449219 102.011719 78.25 C 103.640625 80.195312 105.050781 82.117188 106.171875 83.914062 C 112.324219 93.59375 109.550781 97.554688 116.4375 107.425781 C 126.753906 122.285156 140.742188 124.375 139.671875 128.363281 Z M 139.671875 128.363281 " fill-opacity="1" fill-rule="nonzero"/><path fill="#f2b705" d="M 45.734375 202.984375 C 45.734375 207.164062 31.308594 212.78125 17.660156 210.253906 C 13.984375 209.570312 10.992188 208.40625 8.632812 207.238281 C 10.652344 200.453125 13.011719 193.644531 15.6875 186.984375 C 16.320312 187.589844 17.027344 188.222656 17.804688 188.878906 C 31.671875 200.503906 45.710938 198.875 45.734375 202.984375 Z M 45.734375 202.984375 " fill-opacity="1" fill-rule="nonzero"/><path fill="#f2b705" d="M 16.03125 241.519531 C 9.703125 243.246094 4.570312 242.710938 1.773438 242.445312 C 2.285156 235.660156 3.378906 228.707031 4.910156 221.65625 C 5.519531 221.851562 6.175781 222.019531 6.859375 222.191406 C 24.421875 226.664062 36.320312 219.078125 38.144531 222.773438 C 39.96875 226.542969 29.410156 237.875 16.03125 241.519531 Z M 16.03125 241.519531 " fill-opacity="1" fill-rule="nonzero"/><path fill="#f2b705" d="M 11.601562 275.121094 C 9.363281 276.628906 7.171875 277.722656 5.203125 278.503906 C 3.207031 272.449219 2.066406 265.933594 1.601562 259.101562 C 16.417969 256.402344 23.9375 247.625 26.5625 250.296875 C 29.507812 253.265625 23.132812 267.390625 11.601562 275.121094 Z M 11.601562 275.121094 " fill-opacity="1" fill-rule="nonzero"/><path fill="#f2b705" d="M 105.609375 295.183594 C 104.273438 300.894531 101.9375 306.097656 98.507812 310.207031 C 88.992188 304.371094 80.84375 303.789062 81.136719 300.652344 C 81.453125 296.933594 93.496094 293.164062 105.609375 295.183594 Z M 105.609375 295.183594 " fill-opacity="1" fill-rule="nonzero"/><path fill="#f2b705" d="M 105.828125 271.5 C 106.777344 276.191406 107.144531 281.105469 106.875 285.917969 C 97.632812 284.410156 91.136719 285.84375 90.476562 283.074219 C 89.75 280.058594 96.585938 274.464844 105.828125 271.5 Z M 105.828125 271.5 " fill-opacity="1" fill-rule="nonzero"/><path fill="#f2b705" d="M 97.679688 252.484375 C 100.210938 255.746094 102.230469 259.632812 103.738281 263.890625 C 95.464844 264.375 90.089844 266.441406 89.019531 264.035156 C 87.972656 261.726562 91.621094 256.742188 97.679688 252.484375 Z M 97.679688 252.484375 " fill-opacity="1" fill-rule="nonzero"/><path fill="#f2b705" d="M 141.519531 151.070312 C 137.09375 151.070312 133.394531 156.152344 134.5625 159.582031 C 135.585938 162.523438 140.0625 163.835938 143.445312 162.863281 C 145.367188 162.304688 148.089844 160.652344 148.429688 157.953125 C 148.84375 154.546875 145.195312 151.070312 141.519531 151.070312 Z M 141.519531 151.070312 " fill-opacity="1" fill-rule="nonzero"/><path fill="#f2b705" d="M 126.265625 149.441406 C 125.148438 151.316406 125.390625 153.867188 126.730469 154.960938 C 128.941406 156.761719 134.269531 154.671875 134.613281 151.605469 C 134.804688 149.953125 133.542969 148.007812 131.644531 147.351562 C 129.550781 146.648438 127.3125 147.714844 126.265625 149.441406 Z M 126.265625 149.441406 " fill-opacity="1" fill-rule="nonzero"/><path fill="#f2b705" d="M 219.742188 42.847656 C 217.476562 42.09375 214.484375 44.476562 214.414062 47.152344 C 214.363281 48.683594 215.3125 50.582031 217.113281 51.117188 C 219.058594 51.699219 220.980469 50.386719 221.761719 48.855469 C 222.878906 46.617188 221.785156 43.53125 219.742188 42.847656 Z M 219.742188 42.847656 " fill-opacity="1" fill-rule="nonzero"/><path fill="#f2b705" d="M 226.84375 46.132812 C 224.289062 47.421875 223.195312 51.96875 225.386719 54.714844 C 226.917969 56.660156 230.007812 57.609375 232.367188 56.269531 C 234.21875 55.226562 235.117188 53.0625 234.921875 51.214844 C 234.53125 47.566406 229.789062 44.671875 226.84375 46.132812 Z M 226.84375 46.132812 " fill-opacity="1" fill-rule="nonzero"/><path fill="#f2b705" d="M 38.265625 182.65625 C 41.699219 184.503906 46.660156 182.511719 48.070312 178.765625 C 48.921875 176.527344 48.535156 173.441406 46.683594 171.980469 C 43.277344 169.332031 35.46875 172.6875 35.03125 177.210938 C 34.8125 179.398438 36.371094 181.632812 38.265625 182.65625 Z M 38.265625 182.65625 " fill-opacity="1" fill-rule="nonzero"/><path fill="#f2b705" d="M 42.328125 160.164062 C 39.96875 160.871094 38.316406 163.351562 38.753906 165.320312 C 39.386719 168.117188 44.203125 169.769531 46.757812 167.824219 C 48.144531 166.753906 48.949219 164.589844 48.21875 162.71875 C 47.316406 160.457031 44.542969 159.507812 42.328125 160.164062 Z M 42.328125 160.164062 " fill-opacity="1" fill-rule="nonzero"/><path fill="#f2b705" d="M 51.453125 166.121094 C 49.53125 166.679688 48.191406 168.699219 48.558594 170.304688 C 49.070312 172.566406 52.960938 173.925781 55.054688 172.324219 C 56.171875 171.472656 56.832031 169.695312 56.222656 168.1875 C 55.492188 166.367188 53.253906 165.585938 51.453125 166.121094 Z M 51.453125 166.121094 " fill-opacity="1" fill-rule="nonzero"/><path fill="#f2b705" d="M 124.878906 159.628906 C 123.128906 160.773438 121.839844 163.230469 122.664062 165.078125 C 123.6875 167.339844 127.605469 167.96875 129.941406 166.269531 C 131.691406 164.980469 132.761719 162.183594 131.546875 160.3125 C 130.207031 158.269531 126.875 158.316406 124.878906 159.628906 Z M 124.878906 159.628906 " fill-opacity="1" fill-rule="nonzero"/><g clip-path="url(#id1)"><path fill="#fcfaf4" d="M 304.453125 99.15625 C 304.453125 100.1875 304.40625 101.214844 304.304688 102.242188 C 304.203125 103.269531 304.050781 104.289062 303.851562 105.300781 C 303.648438 106.3125 303.398438 107.3125 303.097656 108.300781 C 302.800781 109.289062 302.453125 110.257812 302.058594 111.210938 C 301.664062 112.164062 301.222656 113.09375 300.734375 114.003906 C 300.25 114.914062 299.71875 115.796875 299.144531 116.65625 C 298.574219 117.515625 297.960938 118.34375 297.304688 119.140625 C 296.652344 119.9375 295.957031 120.699219 295.230469 121.429688 C 294.5 122.160156 293.734375 122.851562 292.9375 123.503906 C 292.140625 124.160156 291.3125 124.773438 290.457031 125.347656 C 289.597656 125.921875 288.714844 126.449219 287.804688 126.9375 C 286.894531 127.421875 285.960938 127.863281 285.007812 128.257812 C 284.054688 128.652344 283.085938 129 282.097656 129.300781 C 281.113281 129.597656 280.113281 129.847656 279.101562 130.050781 C 278.089844 130.25 277.070312 130.402344 276.042969 130.503906 C 275.015625 130.605469 273.988281 130.65625 272.953125 130.65625 C 271.921875 130.65625 270.894531 130.605469 269.867188 130.503906 C 268.839844 130.402344 267.820312 130.25 266.808594 130.050781 C 265.796875 129.847656 264.796875 129.597656 263.8125 129.300781 C 262.824219 129 261.855469 128.652344 260.902344 128.257812 C 259.949219 127.863281 259.015625 127.421875 258.105469 126.9375 C 257.195312 126.449219 256.3125 125.921875 255.453125 125.347656 C 254.597656 124.773438 253.769531 124.160156 252.972656 123.503906 C 252.175781 122.851562 251.410156 122.160156 250.679688 121.429688 C 249.953125 120.699219 249.257812 119.9375 248.605469 119.140625 C 247.949219 118.34375 247.335938 117.515625 246.765625 116.65625 C 246.191406 115.796875 245.660156 114.914062 245.175781 114.003906 C 244.6875 113.09375 244.246094 112.164062 243.851562 111.210938 C 243.457031 110.257812 243.109375 109.289062 242.8125 108.300781 C 242.511719 107.3125 242.261719 106.3125 242.058594 105.300781 C 241.859375 104.289062 241.707031 103.269531 241.605469 102.242188 C 241.503906 101.214844 241.453125 100.1875 241.453125 99.15625 C 241.453125 98.125 241.503906 97.09375 241.605469 96.070312 C 241.707031 95.042969 241.859375 94.023438 242.058594 93.011719 C 242.261719 92 242.511719 91 242.8125 90.011719 C 243.109375 89.023438 243.457031 88.054688 243.851562 87.101562 C 244.246094 86.148438 244.6875 85.214844 245.175781 84.308594 C 245.660156 83.398438 246.191406 82.511719 246.765625 81.65625 C 247.335938 80.796875 247.949219 79.96875 248.605469 79.171875 C 249.257812 78.375 249.953125 77.613281 250.679688 76.882812 C 251.410156 76.152344 252.175781 75.460938 252.972656 74.804688 C 253.769531 74.152344 254.597656 73.539062 255.453125 72.964844 C 256.3125 72.390625 257.195312 71.863281 258.105469 71.375 C 259.015625 70.890625 259.949219 70.449219 260.902344 70.054688 C 261.855469 69.660156 262.824219 69.3125 263.8125 69.011719 C 264.796875 68.710938 265.796875 68.460938 266.808594 68.261719 C 267.820312 68.058594 268.839844 67.910156 269.867188 67.808594 C 270.894531 67.707031 271.921875 67.65625 272.953125 67.65625 C 273.988281 67.65625 275.015625 67.707031 276.042969 67.808594 C 277.070312 67.910156 278.089844 68.058594 279.101562 68.261719 C 280.113281 68.460938 281.113281 68.710938 282.097656 69.011719 C 283.085938 69.3125 284.054688 69.660156 285.007812 70.054688 C 285.960938 70.449219 286.894531 70.890625 287.804688 71.375 C 288.714844 71.863281 289.597656 72.390625 290.457031 72.964844 C 291.3125 73.539062 292.140625 74.152344 292.9375 74.804688 C 293.734375 75.460938 294.5 76.152344 295.230469 76.882812 C 295.957031 77.613281 296.652344 78.375 297.304688 79.171875 C 297.960938 79.96875 298.574219 80.796875 299.144531 81.65625 C 299.71875 82.511719 300.25 83.398438 300.734375 84.308594 C 301.222656 85.214844 301.664062 86.148438 302.058594 87.101562 C 302.453125 88.054688 302.800781 89.023438 303.097656 90.011719 C 303.398438 91 303.648438 92 303.851562 93.011719 C 304.050781 94.023438 304.203125 95.042969 304.304688 96.070312 C 304.40625 97.09375 304.453125 98.125 304.453125 99.15625 Z M 304.453125 99.15625 " fill-opacity="1" fill-rule="nonzero"/></g><g clip-path="url(#id2)"><path fill="#292f33" d="M 279.65625 99.457031 L 295.273438 83.800781 C 297.125 81.945312 297.125 78.9375 295.273438 77.082031 C 293.421875 75.226562 290.421875 75.226562 288.570312 77.082031 L 272.953125 92.738281 L 257.332031 77.082031 C 255.480469 75.226562 252.480469 75.226562 250.625 77.082031 C 248.777344 78.9375 248.777344 81.945312 250.625 83.804688 L 266.246094 99.457031 L 250.589844 115.152344 C 248.738281 117.007812 248.738281 120.015625 250.589844 121.871094 C 251.511719 122.800781 252.726562 123.265625 253.941406 123.265625 C 255.152344 123.265625 256.367188 122.800781 257.292969 121.871094 L 272.949219 106.179688 L 288.566406 121.835938 C 289.492188 122.761719 290.707031 123.226562 291.917969 123.226562 C 293.132812 123.226562 294.34375 122.761719 295.269531 121.835938 C 297.125 119.980469 297.125 116.96875 295.269531 115.113281 Z M 279.65625 99.457031 " fill-opacity="1" fill-rule="nonzero"/></g><g clip-path="url(#id3)"><path fill="#fcfaf4" d="M 373.394531 99.15625 C 373.394531 100.1875 373.34375 101.214844 373.242188 102.242188 C 373.140625 103.269531 372.988281 104.289062 372.789062 105.300781 C 372.585938 106.3125 372.335938 107.3125 372.039062 108.300781 C 371.738281 109.289062 371.390625 110.257812 370.996094 111.210938 C 370.601562 112.164062 370.160156 113.09375 369.675781 114.003906 C 369.1875 114.914062 368.660156 115.796875 368.085938 116.65625 C 367.511719 117.515625 366.898438 118.34375 366.242188 119.140625 C 365.589844 119.9375 364.898438 120.699219 364.167969 121.429688 C 363.4375 122.160156 362.675781 122.851562 361.878906 123.503906 C 361.078125 124.160156 360.253906 124.773438 359.394531 125.347656 C 358.535156 125.921875 357.652344 126.449219 356.742188 126.9375 C 355.832031 127.421875 354.902344 127.863281 353.949219 128.257812 C 352.996094 128.652344 352.023438 129 351.039062 129.300781 C 350.050781 129.597656 349.050781 129.847656 348.039062 130.050781 C 347.027344 130.25 346.007812 130.402344 344.980469 130.503906 C 343.953125 130.605469 342.925781 130.65625 341.894531 130.65625 C 340.863281 130.65625 339.832031 130.605469 338.804688 130.503906 C 337.78125 130.402344 336.761719 130.25 335.75 130.050781 C 334.738281 129.847656 333.738281 129.597656 332.75 129.300781 C 331.761719 129 330.792969 128.652344 329.839844 128.257812 C 328.886719 127.863281 327.953125 127.421875 327.046875 126.9375 C 326.136719 126.449219 325.25 125.921875 324.394531 125.347656 C 323.535156 124.773438 322.707031 124.160156 321.910156 123.503906 C 321.113281 122.851562 320.351562 122.160156 319.621094 121.429688 C 318.890625 120.699219 318.199219 119.9375 317.542969 119.140625 C 316.890625 118.34375 316.277344 117.515625 315.703125 116.65625 C 315.128906 115.796875 314.601562 114.914062 314.113281 114.003906 C 313.628906 113.09375 313.1875 112.164062 312.792969 111.210938 C 312.398438 110.257812 312.050781 109.289062 311.75 108.300781 C 311.449219 107.3125 311.199219 106.3125 311 105.300781 C 310.796875 104.289062 310.648438 103.269531 310.546875 102.242188 C 310.445312 101.214844 310.394531 100.1875 310.394531 99.15625 C 310.394531 98.125 310.445312 97.09375 310.546875 96.070312 C 310.648438 95.042969 310.796875 94.023438 311 93.011719 C 311.199219 92 311.449219 91 311.75 90.011719 C 312.050781 89.023438 312.398438 88.054688 312.792969 87.101562 C 313.1875 86.148438 313.628906 85.214844 314.113281 84.308594 C 314.601562 83.398438 315.128906 82.511719 315.703125 81.65625 C 316.277344 80.796875 316.890625 79.96875 317.542969 79.171875 C 318.199219 78.375 318.890625 77.613281 319.621094 76.882812 C 320.351562 76.152344 321.113281 75.460938 321.910156 74.804688 C 322.707031 74.152344 323.535156 73.539062 324.394531 72.964844 C 325.25 72.390625 326.136719 71.863281 327.046875 71.375 C 327.953125 70.890625 328.886719 70.449219 329.839844 70.054688 C 330.792969 69.660156 331.761719 69.3125 332.75 69.011719 C 333.738281 68.710938 334.738281 68.460938 335.75 68.261719 C 336.761719 68.058594 337.78125 67.910156 338.804688 67.808594 C 339.832031 67.707031 340.863281 67.65625 341.894531 67.65625 C 342.925781 67.65625 343.953125 67.707031 344.980469 67.808594 C 346.007812 67.910156 347.027344 68.058594 348.039062 68.261719 C 349.050781 68.460938 350.050781 68.710938 351.039062 69.011719 C 352.023438 69.3125 352.996094 69.660156 353.949219 70.054688 C 354.902344 70.449219 355.832031 70.890625 356.742188 71.375 C 357.652344 71.863281 358.535156 72.390625 359.394531 72.964844 C 360.253906 73.539062 361.078125 74.152344 361.878906 74.804688 C 362.675781 75.460938 363.4375 76.152344 364.167969 76.882812 C 364.898438 77.613281 365.589844 78.375 366.242188 79.171875 C 366.898438 79.96875 367.511719 80.796875 368.085938 81.65625 C 368.660156 82.511719 369.1875 83.398438 369.675781 84.308594 C 370.160156 85.214844 370.601562 86.148438 370.996094 87.101562 C 371.390625 88.054688 371.738281 89.023438 372.039062 90.011719 C 372.335938 91 372.585938 92 372.789062 93.011719 C 372.988281 94.023438 373.140625 95.042969 373.242188 96.070312 C 373.34375 97.09375 373.394531 98.125 373.394531 99.15625 Z M 373.394531 99.15625 " fill-opacity="1" fill-rule="nonzero"/></g><g clip-path="url(#id4)"><path fill="#292f33" d="M 348.59375 99.457031 L 364.214844 83.800781 C 366.066406 81.945312 366.066406 78.9375 364.214844 77.082031 C 362.363281 75.226562 359.363281 75.226562 357.507812 77.082031 L 341.890625 92.738281 L 326.269531 77.082031 C 324.421875 75.226562 321.417969 75.226562 319.566406 77.082031 C 317.714844 78.9375 317.714844 81.945312 319.566406 83.804688 L 335.183594 99.457031 L 319.527344 115.152344 C 317.675781 117.007812 317.675781 120.015625 319.527344 121.871094 C 320.453125 122.800781 321.667969 123.265625 322.878906 123.265625 C 324.089844 123.265625 325.308594 122.800781 326.234375 121.871094 L 341.890625 106.179688 L 357.507812 121.835938 C 358.433594 122.761719 359.644531 123.226562 360.859375 123.226562 C 362.070312 123.226562 363.285156 122.761719 364.210938 121.835938 C 366.0625 119.980469 366.0625 116.96875 364.210938 115.113281 Z M 348.59375 99.457031 " fill-opacity="1" fill-rule="nonzero"/></g><path fill="#ed6826" d="M 295.113281 144.050781 C 285.847656 144.367188 288.363281 146.445312 290.296875 146.652344 C 289.433594 147.6875 288.925781 150.761719 288.867188 155.355469 C 288.710938 164.558594 288.53125 174.492188 294.101562 182.207031 C 297.988281 186.898438 305.1875 185.921875 308.152344 180.429688 C 312.921875 173.964844 314.707031 166.207031 315.421875 158.429688 C 315.503906 155.195312 314.746094 149.144531 313.503906 147.039062 C 311.210938 144.976562 306.128906 144.8125 295.113281 144.050781 Z M 295.113281 144.050781 " fill-opacity="1" fill-rule="evenodd"/><path fill="#fefefe" d="M 289.523438 146.808594 C 292.664062 143.90625 298.605469 144.332031 302.761719 145.785156 C 303.78125 147.320312 312.691406 142.96875 314.472656 147.066406 C 314.980469 154.234375 308.617188 156.539062 303.015625 152.953125 C 298.179688 152.441406 294.617188 158.84375 289.523438 146.808594 Z M 289.523438 146.808594 " fill-opacity="0.1255" fill-rule="evenodd"/><path fill="#fefefe" d="M 290.277344 146.039062 C 293.417969 143.136719 298.59375 144.074219 302.75 145.527344 C 303.769531 147.0625 312.679688 142.710938 314.460938 146.804688 C 313.1875 151.925781 308.097656 153.464844 302.496094 149.878906 C 297.660156 149.367188 295.367188 156.535156 290.277344 146.039062 Z M 290.277344 146.039062 " fill-opacity="0.1255" fill-rule="evenodd"/><path fill="#fefefe" d="M 314.984375 160.132812 C 314.5625 169.09375 311.847656 176.007812 307.601562 183.179688 C 303.277344 185.226562 297.675781 184.96875 295.894531 183.691406 C 293.347656 175.242188 306.074219 181.640625 314.984375 160.132812 Z M 314.984375 160.132812 " fill-opacity="0.1255" fill-rule="evenodd"/><path fill="#fefefe" d="M 314.261719 163.984375 C 313.835938 172.945312 311.882812 175.25 307.640625 182.417969 C 303.3125 184.46875 299.496094 186.261719 297.714844 184.980469 C 295.167969 176.53125 305.351562 185.492188 314.261719 163.984375 Z M 314.261719 163.984375 " fill-opacity="0.1255" fill-rule="evenodd"/><g clip-path="url(#id5)"><path fill="#000000" d="M 294.457031 142.847656 C 285.191406 143.167969 276.691406 145.523438 268.421875 149.984375 C 271.957031 151.46875 275.691406 149.039062 279.128906 149.183594 C 281.9375 148.667969 286.429688 147.035156 288.367188 147.242188 C 287.503906 148.277344 287.503906 151.09375 287.445312 155.6875 C 287.289062 164.890625 288.378906 175.335938 293.953125 183.054688 C 297.839844 187.742188 306.308594 187.277344 309.277344 181.785156 C 314.042969 175.324219 315.574219 167.308594 316.289062 159.53125 C 316.371094 156.296875 317.398438 149.21875 316.917969 146.859375 C 322.515625 146.074219 332.425781 149.8125 337.617188 152.183594 C 336.507812 148.863281 333.585938 148.101562 330.773438 147.367188 C 319.757812 143.671875 305.980469 142.839844 294.457031 142.847656 Z M 294.707031 145.382812 C 297.53125 145.285156 301.085938 146.1875 301.972656 148.464844 C 302.917969 151.710938 301.546875 155.050781 301.972656 158.347656 C 301.753906 164.804688 301.519531 171.277344 301.300781 177.734375 C 304.054688 175.257812 302.738281 171.066406 302.980469 167.894531 C 304.097656 161.289062 302.609375 154.734375 304.15625 148.171875 C 304.835938 146.664062 306.429688 145.554688 308.101562 145.636719 C 312.957031 146.292969 315.394531 151.914062 314.566406 156.363281 C 314.28125 165.566406 312.09375 174.359375 306.171875 181.742188 C 302.238281 185.832031 295.289062 183.917969 293.363281 178.660156 C 289.242188 171.390625 290.296875 163.785156 290.003906 155.6875 C 289.953125 152.222656 290.050781 145.273438 292.230469 145.804688 C 292.878906 145.5625 293.765625 145.414062 294.707031 145.382812 Z M 263.089844 146.355469 C 262.304688 148.191406 262.597656 150.253906 262.753906 152.183594 C 263.238281 155.015625 264.867188 157.8125 267.542969 159.023438 C 269.238281 159.703125 274.808594 160.019531 275.015625 159.066406 C 274.984375 158.351562 270.332031 157.46875 268.800781 157.207031 C 266.671875 156.671875 265.914062 155.25 265.234375 153.238281 C 264.566406 151.363281 263.515625 146.65625 263.089844 146.355469 Z M 344.085938 147.285156 C 343.230469 147.253906 344.261719 153.753906 343.582031 155.390625 C 342.878906 156.945312 341.363281 157.964844 339.761719 158.390625 C 338.113281 158.878906 336.371094 158.875 334.929688 159.785156 C 336.222656 161.398438 341.847656 160.300781 343.328125 159.234375 C 345.335938 157.527344 346.054688 154.675781 345.597656 152.140625 C 345.371094 150.449219 344.816406 148.816406 344.085938 147.285156 Z M 344.085938 147.285156 " fill-opacity="1" fill-rule="evenodd"/></g></svg>